<svg width="1166" height="454" viewBox="0 0 1166 454" fill="none" xmlns="http://www.w3.org/2000/svg">
<rect width="1166" height="454" fill="#E6E1DB"/>
<path d="M112.35 255.95C119.15 255.95 125.2 254.85 130.5 252.65C135.9 250.35 140.45 247.1 144.15 242.9C147.85 238.7 150.65 233.6 152.55 227.6C154.55 221.5 155.55 214.6 155.55 206.9V77.45H206.25V206.9C206.25 220.3 204.05 232.6 199.65 243.8C195.35 255 189.15 264.65 181.05 272.75C172.95 280.85 163.1 287.15 151.5 291.65C139.9 296.15 126.85 298.4 112.35 298.4C97.75 298.4 84.65 296.15 73.05 291.65C61.45 287.15 51.6 280.85 43.5 272.75C35.4 264.65 29.2 255 24.9 243.8C20.6 232.6 18.45 220.3 18.45 206.9V77.45H69.15V206.75C69.15 214.45 70.1 221.35 72 227.45C74 233.45 76.85 238.6 80.55 242.9C84.25 247.1 88.75 250.35 94.05 252.65C99.45 254.85 105.55 255.95 112.35 255.95ZM436.657 77.45V296H410.257C406.357 296 403.057 295.4 400.357 294.2C397.757 292.9 395.157 290.7 392.557 287.6L289.507 157.25C289.907 161.15 290.157 164.95 290.257 168.65C290.457 172.25 290.557 175.65 290.557 178.85V296H245.857V77.45H272.557C274.757 77.45 276.607 77.55 278.107 77.75C279.607 77.95 280.957 78.35 282.157 78.95C283.357 79.45 284.507 80.2 285.607 81.2C286.707 82.2 287.957 83.55 289.357 85.25L393.307 216.5C392.807 212.3 392.457 208.25 392.257 204.35C392.057 200.35 391.957 196.6 391.957 193.1V77.45H436.657Z" fill="url(#paint0_linear_3286_27)"/>
<path d="M511.15 296H460.15V77.45H511.15V296Z" fill="url(#paint1_linear_3286_27)"/>
<path d="M928.45 186.65C928.45 202.45 925.7 217.05 920.2 230.45C914.8 243.75 907.15 255.3 897.25 265.1C887.35 274.8 875.4 282.4 861.4 287.9C847.5 293.3 832.05 296 815.05 296H730.15V77.45H815.05C832.05 77.45 847.5 80.2 861.4 85.7C875.4 91.2 887.35 98.8 897.25 108.5C907.15 118.2 914.8 129.75 920.2 143.15C925.7 156.45 928.45 170.95 928.45 186.65ZM876.55 186.65C876.55 175.85 875.15 166.1 872.35 157.4C869.55 148.7 865.5 141.35 860.2 135.35C855 129.25 848.6 124.6 841 121.4C833.4 118.1 824.75 116.45 815.05 116.45H781.15V257H815.05C824.75 257 833.4 255.4 841 252.2C848.6 248.9 855 244.25 860.2 238.25C865.5 232.15 869.55 224.75 872.35 216.05C875.15 207.35 876.55 197.55 876.55 186.65ZM1156.67 186.65C1156.67 202.45 1153.92 217.05 1148.42 230.45C1143.02 243.75 1135.37 255.3 1125.47 265.1C1115.57 274.8 1103.62 282.4 1089.62 287.9C1075.72 293.3 1060.27 296 1043.27 296H958.373V77.45H1043.27C1060.27 77.45 1075.72 80.2 1089.62 85.7C1103.62 91.2 1115.57 98.8 1125.47 108.5C1135.37 118.2 1143.02 129.75 1148.42 143.15C1153.92 156.45 1156.67 170.95 1156.67 186.65ZM1104.77 186.65C1104.77 175.85 1103.37 166.1 1100.57 157.4C1097.77 148.7 1093.72 141.35 1088.42 135.35C1083.22 129.25 1076.82 124.6 1069.22 121.4C1061.62 118.1 1052.97 116.45 1043.27 116.45H1009.37V257H1043.27C1052.97 257 1061.62 255.4 1069.22 252.2C1076.82 248.9 1083.22 244.25 1088.42 238.25C1093.72 232.15 1097.77 224.75 1100.57 216.05C1103.37 207.35 1104.77 197.55 1104.77 186.65Z" fill="url(#paint2_linear_3286_27)"/>
<line x1="542" y1="97.5" x2="692" y2="97.5" stroke="url(#paint3_linear_3286_27)" stroke-width="41"/>
<line x1="542" y1="187.5" x2="675" y2="187.5" stroke="#F4B348" stroke-width="41"/>
<line x1="568" y1="259" x2="568" y2="167" stroke="url(#paint4_linear_3286_27)" stroke-width="52"/>
<line x1="542" y1="275.5" x2="692" y2="275.5" stroke="#ED9538" stroke-width="41"/>
<path d="M102.768 401.8C102.768 406.733 101.768 411.2 99.7676 415.2C97.7676 419.133 94.7009 422.267 90.5676 424.6C86.5009 426.867 81.3009 428 74.9676 428C66.1009 428 59.3342 425.6 54.6676 420.8C50.0676 415.933 47.7676 409.533 47.7676 401.6V355.6H56.7676V401.9C56.7676 407.7 58.3009 412.2 61.3676 415.4C64.5009 418.6 69.2009 420.2 75.4676 420.2C79.8009 420.2 83.3009 419.433 85.9676 417.9C88.7009 416.3 90.7009 414.133 91.9676 411.4C93.2342 408.6 93.8676 405.4 93.8676 401.8V355.6H102.768V401.8ZM155.212 372.4C161.612 372.4 166.445 373.967 169.712 377.1C172.979 380.167 174.612 385.167 174.612 392.1V427H165.912V392.7C165.912 388.367 164.945 385.133 163.012 383C161.079 380.867 158.045 379.8 153.912 379.8C147.979 379.8 143.879 381.467 141.612 384.8C139.345 388.133 138.212 392.933 138.212 399.2V427H129.412V373.4H136.512L137.812 380.7H138.312C139.512 378.833 140.979 377.3 142.712 376.1C144.512 374.833 146.479 373.9 148.612 373.3C150.745 372.7 152.945 372.4 155.212 372.4ZM209.029 373.4V427H200.229V373.4H209.029ZM204.729 353.3C206.062 353.3 207.229 353.767 208.229 354.7C209.295 355.567 209.829 356.967 209.829 358.9C209.829 360.767 209.295 362.167 208.229 363.1C207.229 364.033 206.062 364.5 204.729 364.5C203.262 364.5 202.029 364.033 201.029 363.1C200.029 362.167 199.529 360.767 199.529 358.9C199.529 356.967 200.029 355.567 201.029 354.7C202.029 353.767 203.262 353.3 204.729 353.3ZM246.81 427L226.51 373.4H235.91L247.31 405C247.843 406.467 248.41 408.1 249.01 409.9C249.61 411.7 250.143 413.433 250.61 415.1C251.076 416.7 251.41 418.067 251.61 419.2H252.01C252.276 418.067 252.643 416.667 253.11 415C253.643 413.333 254.21 411.6 254.81 409.8C255.476 408 256.043 406.4 256.51 405L267.91 373.4H277.31L256.91 427H246.81ZM315.491 372.4C320.091 372.4 324.024 373.4 327.291 375.4C330.624 377.4 333.158 380.233 334.891 383.9C336.691 387.5 337.591 391.733 337.591 396.6V401.9H300.891C301.024 407.967 302.558 412.6 305.491 415.8C308.491 418.933 312.658 420.5 317.991 420.5C321.391 420.5 324.391 420.2 326.991 419.6C329.658 418.933 332.391 418 335.191 416.8V424.5C332.458 425.7 329.758 426.567 327.091 427.1C324.424 427.7 321.258 428 317.591 428C312.524 428 308.024 426.967 304.091 424.9C300.224 422.833 297.191 419.767 294.991 415.7C292.858 411.567 291.791 406.533 291.791 400.6C291.791 394.733 292.758 389.7 294.691 385.5C296.691 381.3 299.458 378.067 302.991 375.8C306.591 373.533 310.758 372.4 315.491 372.4ZM315.391 379.6C311.191 379.6 307.858 380.967 305.391 383.7C302.991 386.367 301.558 390.1 301.091 394.9H328.391C328.391 391.833 327.924 389.167 326.991 386.9C326.058 384.633 324.624 382.867 322.691 381.6C320.824 380.267 318.391 379.6 315.391 379.6ZM385.236 372.4C386.236 372.4 387.303 372.467 388.436 372.6C389.636 372.667 390.67 372.8 391.536 373L390.436 381.1C389.57 380.9 388.603 380.733 387.536 380.6C386.536 380.467 385.57 380.4 384.636 380.4C382.57 380.4 380.603 380.833 378.736 381.7C376.87 382.567 375.203 383.8 373.736 385.4C372.27 386.933 371.103 388.8 370.236 391C369.436 393.2 369.036 395.667 369.036 398.4V427H360.236V373.4H367.436L368.436 383.2H368.836C369.97 381.2 371.336 379.4 372.936 377.8C374.536 376.133 376.37 374.833 378.436 373.9C380.503 372.9 382.77 372.4 385.236 372.4ZM445.445 412.2C445.445 415.667 444.578 418.567 442.845 420.9C441.112 423.233 438.645 425 435.445 426.2C432.245 427.4 428.445 428 424.045 428C420.312 428 417.078 427.7 414.345 427.1C411.678 426.5 409.312 425.667 407.245 424.6V416.6C409.378 417.667 411.945 418.667 414.945 419.6C418.012 420.467 421.112 420.9 424.245 420.9C428.712 420.9 431.945 420.2 433.945 418.8C435.945 417.333 436.945 415.4 436.945 413C436.945 411.667 436.578 410.467 435.845 409.4C435.112 408.333 433.778 407.267 431.845 406.2C429.978 405.133 427.278 403.933 423.745 402.6C420.278 401.267 417.312 399.933 414.845 398.6C412.378 397.267 410.478 395.667 409.145 393.8C407.812 391.933 407.145 389.533 407.145 386.6C407.145 382.067 408.978 378.567 412.645 376.1C416.378 373.633 421.245 372.4 427.245 372.4C430.512 372.4 433.545 372.733 436.345 373.4C439.212 374 441.878 374.867 444.345 376L441.345 383C439.878 382.333 438.312 381.767 436.645 381.3C435.045 380.767 433.412 380.367 431.745 380.1C430.078 379.767 428.378 379.6 426.645 379.6C423.045 379.6 420.278 380.2 418.345 381.4C416.478 382.533 415.545 384.1 415.545 386.1C415.545 387.567 415.978 388.833 416.845 389.9C417.712 390.9 419.145 391.9 421.145 392.9C423.212 393.833 425.945 394.967 429.345 396.3C432.745 397.567 435.645 398.867 438.045 400.2C440.445 401.533 442.278 403.167 443.545 405.1C444.812 406.967 445.445 409.333 445.445 412.2ZM487.696 372.5C494.23 372.5 499.063 373.933 502.196 376.8C505.33 379.667 506.896 384.233 506.896 390.5V427H500.496L498.796 419.4H498.396C496.863 421.333 495.263 422.967 493.596 424.3C491.996 425.567 490.13 426.5 487.996 427.1C485.93 427.7 483.396 428 480.396 428C477.196 428 474.296 427.433 471.696 426.3C469.163 425.167 467.163 423.433 465.696 421.1C464.23 418.7 463.496 415.7 463.496 412.1C463.496 406.767 465.596 402.667 469.796 399.8C473.996 396.867 480.463 395.267 489.196 395L498.296 394.7V391.5C498.296 387.033 497.33 383.933 495.396 382.2C493.463 380.467 490.73 379.6 487.196 379.6C484.396 379.6 481.73 380.033 479.196 380.9C476.663 381.7 474.296 382.633 472.096 383.7L469.396 377.1C471.73 375.833 474.496 374.767 477.696 373.9C480.896 372.967 484.23 372.5 487.696 372.5ZM490.296 401.1C483.63 401.367 478.996 402.433 476.396 404.3C473.863 406.167 472.596 408.8 472.596 412.2C472.596 415.2 473.496 417.4 475.296 418.8C477.163 420.2 479.53 420.9 482.396 420.9C486.93 420.9 490.696 419.667 493.696 417.2C496.696 414.667 498.196 410.8 498.196 405.6V400.8L490.296 401.1ZM541.251 427H532.451V351H541.251V427ZM637.547 427H597.647V355.6H637.547V363.5H606.647V385.8H635.747V393.6H606.647V419.1H637.547V427ZM680.014 428C673.347 428 668.014 425.7 664.014 421.1C660.014 416.433 658.014 409.5 658.014 400.3C658.014 391.1 660.014 384.167 664.014 379.5C668.08 374.767 673.447 372.4 680.114 372.4C682.914 372.4 685.347 372.767 687.414 373.5C689.48 374.167 691.28 375.1 692.814 376.3C694.347 377.5 695.647 378.833 696.714 380.3H697.314C697.247 379.433 697.114 378.167 696.914 376.5C696.78 374.767 696.714 373.4 696.714 372.4V351H705.514V427H698.414L697.114 419.8H696.714C695.647 421.333 694.347 422.733 692.814 424C691.28 425.2 689.447 426.167 687.314 426.9C685.247 427.633 682.814 428 680.014 428ZM681.414 420.7C687.08 420.7 691.047 419.167 693.314 416.1C695.647 412.967 696.814 408.267 696.814 402V400.4C696.814 393.733 695.714 388.633 693.514 385.1C691.314 381.5 687.247 379.7 681.314 379.7C676.58 379.7 673.014 381.6 670.614 385.4C668.28 389.133 667.114 394.167 667.114 400.5C667.114 406.9 668.28 411.867 670.614 415.4C673.014 418.933 676.614 420.7 681.414 420.7ZM776.337 373.4V427H769.137L767.837 419.9H767.437C766.304 421.767 764.837 423.3 763.037 424.5C761.237 425.7 759.27 426.567 757.137 427.1C755.004 427.7 752.77 428 750.437 428C746.17 428 742.57 427.333 739.637 426C736.77 424.6 734.604 422.467 733.137 419.6C731.67 416.733 730.937 413.033 730.937 408.5V373.4H739.837V407.9C739.837 412.167 740.804 415.367 742.737 417.5C744.67 419.633 747.67 420.7 751.737 420.7C755.737 420.7 758.87 419.967 761.137 418.5C763.47 416.967 765.104 414.767 766.037 411.9C767.037 408.967 767.537 405.433 767.537 401.3V373.4H776.337ZM823.854 428C819.12 428 814.887 427.033 811.154 425.1C807.487 423.167 804.587 420.167 802.454 416.1C800.387 412.033 799.354 406.833 799.354 400.5C799.354 393.9 800.454 388.533 802.654 384.4C804.854 380.267 807.82 377.233 811.554 375.3C815.354 373.367 819.654 372.4 824.454 372.4C827.187 372.4 829.82 372.7 832.354 373.3C834.887 373.833 836.954 374.5 838.554 375.3L835.854 382.6C834.254 382 832.387 381.433 830.254 380.9C828.12 380.367 826.12 380.1 824.254 380.1C820.654 380.1 817.687 380.867 815.354 382.4C813.02 383.933 811.287 386.2 810.154 389.2C809.02 392.2 808.454 395.933 808.454 400.4C808.454 404.667 809.02 408.3 810.154 411.3C811.287 414.3 812.987 416.567 815.254 418.1C817.52 419.633 820.354 420.4 823.754 420.4C826.687 420.4 829.254 420.1 831.454 419.5C833.72 418.9 835.787 418.167 837.654 417.3V425.1C835.854 426.033 833.854 426.733 831.654 427.2C829.52 427.733 826.92 428 823.854 428ZM879.7 372.5C886.234 372.5 891.067 373.933 894.2 376.8C897.334 379.667 898.9 384.233 898.9 390.5V427H892.5L890.8 419.4H890.4C888.867 421.333 887.267 422.967 885.6 424.3C884 425.567 882.134 426.5 880 427.1C877.934 427.7 875.4 428 872.4 428C869.2 428 866.3 427.433 863.7 426.3C861.167 425.167 859.167 423.433 857.7 421.1C856.234 418.7 855.5 415.7 855.5 412.1C855.5 406.767 857.6 402.667 861.8 399.8C866 396.867 872.467 395.267 881.2 395L890.3 394.7V391.5C890.3 387.033 889.334 383.933 887.4 382.2C885.467 380.467 882.734 379.6 879.2 379.6C876.4 379.6 873.734 380.033 871.2 380.9C868.667 381.7 866.3 382.633 864.1 383.7L861.4 377.1C863.734 375.833 866.5 374.767 869.7 373.9C872.9 372.967 876.234 372.5 879.7 372.5ZM882.3 401.1C875.634 401.367 871 402.433 868.4 404.3C865.867 406.167 864.6 408.8 864.6 412.2C864.6 415.2 865.5 417.4 867.3 418.8C869.167 420.2 871.534 420.9 874.4 420.9C878.934 420.9 882.7 419.667 885.7 417.2C888.7 414.667 890.2 410.8 890.2 405.6V400.8L882.3 401.1ZM942.355 420.8C943.688 420.8 945.055 420.7 946.455 420.5C947.855 420.233 948.988 419.967 949.855 419.7V426.4C948.922 426.867 947.588 427.233 945.855 427.5C944.122 427.833 942.455 428 940.855 428C938.055 428 935.455 427.533 933.055 426.6C930.722 425.6 928.822 423.9 927.355 421.5C925.888 419.1 925.155 415.733 925.155 411.4V380.2H917.555V376L925.255 372.5L928.755 361.1H933.955V373.4H949.455V380.2H933.955V411.2C933.955 414.467 934.722 416.9 936.255 418.5C937.855 420.033 939.888 420.8 942.355 420.8ZM978.388 373.4V427H969.588V373.4H978.388ZM974.088 353.3C975.421 353.3 976.588 353.767 977.588 354.7C978.655 355.567 979.188 356.967 979.188 358.9C979.188 360.767 978.655 362.167 977.588 363.1C976.588 364.033 975.421 364.5 974.088 364.5C972.621 364.5 971.388 364.033 970.388 363.1C969.388 362.167 968.888 360.767 968.888 358.9C968.888 356.967 969.388 355.567 970.388 354.7C971.388 353.767 972.621 353.3 974.088 353.3ZM1050.97 400.1C1050.97 404.567 1050.37 408.533 1049.17 412C1048.04 415.4 1046.37 418.3 1044.17 420.7C1042.04 423.1 1039.4 424.933 1036.27 426.2C1033.2 427.4 1029.77 428 1025.97 428C1022.44 428 1019.17 427.4 1016.17 426.2C1013.17 424.933 1010.57 423.1 1008.37 420.7C1006.17 418.3 1004.44 415.4 1003.17 412C1001.97 408.533 1001.37 404.567 1001.37 400.1C1001.37 394.167 1002.37 389.167 1004.37 385.1C1006.37 380.967 1009.24 377.833 1012.97 375.7C1016.7 373.5 1021.14 372.4 1026.27 372.4C1031.14 372.4 1035.4 373.5 1039.07 375.7C1042.8 377.833 1045.7 380.967 1047.77 385.1C1049.9 389.167 1050.97 394.167 1050.97 400.1ZM1010.47 400.1C1010.47 404.3 1011 407.967 1012.07 411.1C1013.2 414.167 1014.94 416.533 1017.27 418.2C1019.6 419.867 1022.57 420.7 1026.17 420.7C1029.77 420.7 1032.74 419.867 1035.07 418.2C1037.4 416.533 1039.1 414.167 1040.17 411.1C1041.3 407.967 1041.87 404.3 1041.87 400.1C1041.87 395.833 1041.3 392.2 1040.17 389.2C1039.04 386.2 1037.3 383.9 1034.97 382.3C1032.7 380.633 1029.74 379.8 1026.07 379.8C1020.6 379.8 1016.64 381.6 1014.17 385.2C1011.7 388.8 1010.47 393.767 1010.47 400.1ZM1099.72 372.4C1106.12 372.4 1110.95 373.967 1114.22 377.1C1117.48 380.167 1119.12 385.167 1119.12 392.1V427H1110.42V392.7C1110.42 388.367 1109.45 385.133 1107.52 383C1105.58 380.867 1102.55 379.8 1098.42 379.8C1092.48 379.8 1088.38 381.467 1086.12 384.8C1083.85 388.133 1082.72 392.933 1082.72 399.2V427H1073.92V373.4H1081.02L1082.32 380.7H1082.82C1084.02 378.833 1085.48 377.3 1087.22 376.1C1089.02 374.833 1090.98 373.9 1093.12 373.3C1095.25 372.7 1097.45 372.4 1099.72 372.4Z" fill="black"/>
<defs>
<linearGradient id="paint0_linear_3286_27" x1="229" y1="0" x2="229" y2="360" gradientUnits="userSpaceOnUse">
<stop stop-color="#29C2EE"/>
<stop offset="1" stop-color="#085084"/>
</linearGradient>
<linearGradient id="paint1_linear_3286_27" x1="486" y1="0" x2="486" y2="360" gradientUnits="userSpaceOnUse">
<stop stop-color="#FACE6A"/>
<stop offset="1" stop-color="#EA812F"/>
</linearGradient>
<linearGradient id="paint2_linear_3286_27" x1="937.5" y1="0" x2="937.5" y2="360" gradientUnits="userSpaceOnUse">
<stop stop-color="#F8C350"/>
<stop offset="1" stop-color="#E98730"/>
</linearGradient>
<linearGradient id="paint3_linear_3286_27" x1="519.128" y1="-1" x2="684.36" y2="128.265" gradientUnits="userSpaceOnUse">
<stop stop-color="#25BDEE"/>
<stop offset="1" stop-color="#156C88"/>
</linearGradient>
<linearGradient id="paint4_linear_3286_27" x1="594.5" y1="167" x2="594.5" y2="259" gradientUnits="userSpaceOnUse">
<stop stop-color="#F4B348"/>
<stop offset="1" stop-color="#EC9437"/>
</linearGradient>
</defs>
</svg>
